<svg width="16" height="16" viewBox="0 0 16 16" fill="none" xmlns="http://www.w3.org/2000/svg">
<g id="instagram 2" clip-path="url(#clip0_650065_504)">
<path id="Vector" d="M15.9845 4.70398C15.9471 3.85384 15.8096 3.26938 15.6126 2.76293C15.4095 2.22535 15.0969 1.74405 14.6874 1.34395C14.2873 0.937622 13.8028 0.621887 13.2715 0.421896C12.7621 0.224959 12.1807 0.0874805 11.3306 0.0499976C10.4741 0.00934021 10.2022 -6.10352e-05 8.02988 -6.10352e-05C5.85758 -6.10352e-05 5.58568 0.00934021 4.73236 0.0468231C3.88222 0.084306 3.29775 0.221906 2.79143 0.418722C2.25373 0.621887 1.77243 0.934448 1.37233 1.34395C0.966003 1.74405 0.650389 2.22852 0.450277 2.75988C0.25334 3.26938 0.115862 3.85067 0.0783789 4.70081C0.0377215 5.5573 0.0283203 5.8292 0.0283203 8.0015C0.0283203 10.1738 0.0377215 10.4457 0.0752044 11.299C0.112687 12.1492 0.250287 12.7336 0.447225 13.2401C0.650389 13.7777 0.966003 14.259 1.37233 14.6591C1.77243 15.0654 2.2569 15.3811 2.78826 15.5811C3.29775 15.778 3.87904 15.9155 4.72931 15.953C5.5825 15.9906 5.85453 15.9999 8.02682 15.9999C10.1991 15.9999 10.471 15.9906 11.3243 15.953C12.1745 15.9155 12.7589 15.778 13.2653 15.5811C14.3406 15.1654 15.1907 14.3152 15.6064 13.2401C15.8032 12.7306 15.9408 12.1492 15.9783 11.299C16.0158 10.4457 16.0252 10.1738 16.0252 8.0015C16.0252 5.8292 16.022 5.5573 15.9845 4.70398ZM14.5437 11.2365C14.5093 12.0179 14.378 12.4399 14.2686 12.7212C13.9998 13.4182 13.4466 13.9714 12.7495 14.2403C12.4682 14.3497 12.0432 14.4809 11.2649 14.5152C10.421 14.5528 10.1679 14.5621 8.03305 14.5621C5.89824 14.5621 5.64196 14.5528 4.8011 14.5152C4.0197 14.4809 3.59774 14.3497 3.31644 14.2403C2.96957 14.1121 2.65383 13.9089 2.39756 13.6432C2.13188 13.3838 1.92871 13.0712 1.80052 12.7243C1.69112 12.443 1.55987 12.0179 1.52556 11.2397C1.48795 10.3958 1.47868 10.1425 1.47868 8.00773C1.47868 5.87291 1.48795 5.61664 1.52556 4.7759C1.55987 3.99449 1.69112 3.57254 1.80052 3.29123C1.92871 2.94424 2.13188 2.62863 2.40073 2.37223C2.66006 2.10655 2.97262 1.90339 3.31961 1.77531C3.60091 1.66591 4.02605 1.53466 4.80427 1.50023C5.64819 1.46275 5.90141 1.45335 8.0361 1.45335C10.1741 1.45335 10.4272 1.46275 11.2681 1.50023C12.0495 1.53466 12.4714 1.66591 12.7527 1.77531C13.0996 1.90339 13.4153 2.10655 13.6716 2.37223C13.9373 2.63168 14.1404 2.94424 14.2686 3.29123C14.378 3.57254 14.5093 3.99755 14.5437 4.7759C14.5812 5.61981 14.5906 5.87291 14.5906 8.00773C14.5906 10.1425 14.5812 10.3926 14.5437 11.2365Z" fill="#F4F4FD"/>
<path id="Vector_2" d="M8.02961 3.8913C5.76049 3.8913 3.91943 5.73223 3.91943 8.00147C3.91943 10.2707 5.76049 12.1117 8.02961 12.1117C10.2989 12.1117 12.1398 10.2707 12.1398 8.00147C12.1398 5.73223 10.2989 3.8913 8.02961 3.8913ZM8.02961 10.6676C6.55752 10.6676 5.36344 9.47368 5.36344 8.00147C5.36344 6.52926 6.55752 5.3353 8.02961 5.3353C9.50182 5.3353 10.6958 6.52926 10.6958 8.00147C10.6958 9.47368 9.50182 10.6676 8.02961 10.6676Z" fill="#F4F4FD"/>
<path id="Vector_3" d="M13.262 3.72883C13.262 4.25872 12.8323 4.68837 12.3023 4.68837C11.7724 4.68837 11.3428 4.25872 11.3428 3.72883C11.3428 3.19882 11.7724 2.76929 12.3023 2.76929C12.8323 2.76929 13.262 3.19882 13.262 3.72883Z" fill="#F4F4FD"/>
</g>
<defs>
<clipPath id="clip0_650065_504">
<rect width="16" height="16" fill="white"/>
</clipPath>
</defs>
</svg>
